/* XPM */
static char *jack64[] = {
/* columns rows colors chars-per-pixel */
"48 48 121 2 ",
"   c #090909",
".  c #0B0B0B",
"X  c #0C0C0C",
"o  c gray5",
"O  c #0E0E0E",
"+  c gray6",
"@  c #101010",
"#  c #111111",
"$  c gray7",
"%  c #131313",
"&  c gray8",
"*  c #151515",
"=  c #161616",
"-  c gray9",
";  c #181818",
":  c #191919",
">  c gray10",
",  c #1B1B1B",
"<  c gray11",
"1  c #1D1D1D",
"2  c #1E1E1E",
"3  c gray12",
"4  c #202020",
"5  c gray13",
"6  c #222222",
"7  c #232323",
"8  c gray14",
"9  c #252525",
"0  c gray15",
"q  c #272727",
"w  c #282828",
"e  c gray16",
"r  c #2A2A2A",
"t  c gray17",
"y  c #2C2C2C",
"u  c #2D2D2D",
"i  c gray18",
"p  c #2F2F2F",
"a  c gray19",
"s  c #313131",
"d  c #323232",
"f  c gray20",
"g  c #343434",
"h  c #353535",
"j  c gray21",
"k  c #373737",
"l  c gray22",
"z  c #393939",
"x  c #3A3A3A",
"c  c gray23",
"v  c #3C3C3C",
"b  c gray24",
"n  c #3E3E3E",
"m  c #3F3F3F",
"M  c gray25",
"N  c #414141",
"B  c gray26",
"V  c #434343",
"C  c #444444",
"Z  c gray27",
"A  c #464646",
"S  c gray28",
"D  c #484848",
"F  c #494949",
"G  c gray29",
"H  c #4B4B4B",
"J  c #4C4C4C",
"K  c gray30",
"L  c #4E4E4E",
"P  c gray31",
"I  c #505050",
"U  c #515151",
"Y  c gray32",
"T  c #535353",
"R  c gray33",
"E  c #555555",
"W  c #565656",
"Q  c gray34",
"!  c #585858",
"~  c gray35",
"^  c #5A5A5A",
"/  c #5B5B5B",
"(  c gray36",
")  c #5D5D5D",
"_  c gray37",
"`  c #5F5F5F",
"'  c #606060",
"]  c gray38",
"[  c #626262",
"{  c gray39",
"}  c #646464",
"|  c #656565",
" . c gray40",
".. c #686868",
"X. c #6A6A6A",
"o. c gray42",
"O. c gray43",
"+. c #6F6F6F",
"@. c gray44",
"#. c #717171",
"$. c #727272",
"%. c gray48",
"&. c #898989",
"*. c #989898",
"=. c gray65",
"-. c gray72",
";. c gray74",
":. c gray",
">. c #C0C0C0",
",. c #CDCDCD",
"<. c LightGray",
"1. c gray85",
"2. c gray86",
"3. c gainsboro",
"4. c #DDDDDD",
"5. c gray89",
"6. c #E9E9E9",
"7. c gray98",
"8. c #FBFBFB",
"9. c white",
"0. c None",
/* pixels */
"0.0.0.0.0.0.0.0.0.0.0.0.0.0.0.0.0.0.0.0.0.0.0.0.0.0.0.0.0.0.0.0.0.0.0.0.0.0.0.0.0.0.0.0.0.0.0.0.",
"0.0.0.0.0.0.0.0.0.0.0.0.0.0.0.0.0.0.0.0.0.0.0.0.0.0.0.0.0.0.0.0.0.0.0.0.0.0.0.0.0.0.0.0.0.0.0.0.",
"0.0.0.0.0.0.0.0.0.0.0.0.0.0.0.0.0.0.0.0.7 5 2 < > ; * $ 0.0.0.0.0.0.0.0.0.0.0.0.0.0.0.0.0.0.0.0.",
"0.0.0.0.0.0.0.0.0.0.0.0.0.0.0.0.0.u r w 9 7 4 2 , : - * $ + O 0.0.0.0.0.0.0.0.0.0.0.0.0.0.0.0.0.",
"0.0.0.0.0.0.0.0.0.0.0.0.0.0.0.0.s i y e q 9 6 4 2 < : = & $ + X 0.0.0.0.0.0.0.0.0.0.0.0.0.0.0.0.",
"0.0.0.0.0.0.0.0.0.0.0.0.0.0.k h f a i y e q 8 6 3 1 , : = % # + o . 0.0.0.0.0.0.0.0.0.0.0.0.0.0.",
"0.0.0.0.0.0.0.0.0.0.0.0.0.v z k h d a i t e 0 8 5 3 < > ; = & # + X . 0.0.0.0.0.0.0.0.0.0.0.0.0.",
"0.0.0.0.0.0.0.0.0.0.0.0.M b c z k g d a u r q 9 6 4 2 < > - * % # O X . 0.0.0.0.0.0.0.0.0.0.0.0.",
"0.0.0.0.0.0.0.0.0.0.0.Z B m b x l j g s i p w 3 < > : 5 2 : - & $ @ o . . 0.0.0.0.0.0.0.0.0.0.0.",
"0.0.0.0.0.0.0.0.0.0.0.S C N M b c l j g p b *.>.;.;.-...6 : : - * $ @ o . 0.0.0.0.0.0.0.0.0.0.0.",
"0.0.0.0.0.0.0.0.0.0.H F A V N n b x l h f e K 7.9.9.=.  , 1 , ; = & $ + X . 0.0.0.0.0.0.0.0.0.0.",
"0.0.0.0.0.0.0.0.0.0.K H D Z V N m v x k h s u 1.9.9.o.O 7 3 1 > ; = & # O X 0.0.0.0.0.0.0.0.0.0.",
"0.0.0.0.0.0.0.0.0.Y P K G S Z B M n v z k f d 2.9.9.O.$ 8 5 3 < > - * % @ O . 0.0.0.0.0.0.0.0.0.",
"0.0.0.0.0.0.0.0.0.R U P J F S C V M n c z h g 2.9.9.+.% q 7 5 2 < > ; * $ @ o 0.0.0.0.0.0.0.0.0.",
"0.0.0.0.0.0.0.0.0.E T U L H F S C B M b c j j 3.9.9.@.* e 9 7 4 2 < : - & $ + 0.0.0.0.0.0.0.0.0.",
"0.0.0.0.0.0.0.0.~ ! E Y I L H D A C B m b z l 3.9.9.@.- t q 9 6 4 1 , : = & # + 0.0.0.0.0.0.0.0.",
"0.0.0.0.0.0.0.0./ ^ W E Y P K H D Z V N m c z 3.9.9.#.: u e q 8 6 3 1 > ; = & # 0.0.0.0.0.0.0.0.",
"0.0.0.0.0.0.0.0.) / ! W R U P J G D Z V N b c 4.9.9.#.> p r e 0 8 6 3 < > - * % 0.0.0.0.0.0.0.0.",
"0.0.0.0.0.0.0.0.` ) / ~ W T U L J F D Z B n b 4.9.9.$.< s u t w 0 7 5 3 < > - * 0.0.0.0.0.0.0.0.",
"0.0.0.0.0.0.0.0.] ` ( ^ ! E T I L H F S Z M m 4.9.9.@.2 f p u r w 9 7 4 2 < : - 0.0.0.0.0.0.0.0.",
"0.0.0.0.0.0.0.0.0.] _ ( ^ Q E Y I K H F S B N 4.9.9.} 6 h s p y r q 9 6 4 2 , 0.0.0.0.0.0.0.0.0.",
"0.0.0.0.0.0.0.0.0.{ ] ` ( ~ Q R Y P K H F C V 4.9.8.N u j f s i y e q 9 6 4 1 0.0.0.0.0.0.0.0.0.",
"0.0.0.0.0.0.0.0.0.| [ ' _ / ~ W R U P K G A S 5.9.:.7 x k h f a i t e 0 8 6 3 0.0.0.0.0.0.0.0.0.",
"0.0.0.0.0.0.0.0.0.0.| [ ' ) / ! W R Y P K m X.9.6.A g b z k h d a u t w 0 8 0.0.0.0.0.0.0.0.0.0.",
"0.0.0.0.0.0.0.0.0.0. .} [ ` ) ^ ! E T U H ~ <.,.T h B n c l k g d p u r q 9 0.0.0.0.0.0.0.0.0.0.",
"0.0.0.0.0.0.0.0.0.0.0. .{ ] ` ( ^ Q E Y ] &.%.B M A B M b c z j g s p y r 0.0.0.0.0.0.0.0.0.0.0.",
"0.0.0.0.0.0.0.0.0.0.0. . .} ] _ ( ~ Q E E H Z G F S C N m b c l j f s i y 0.0.0.0.0.0.0.0.0.0.0.",
"0.0.0.0.0.0.0.0.0.0.0.0. .| [ ' _ / ~ Q R Y P K G D Z C N n v x l h f a 0.0.0.0.0.0.0.0.0.0.0.0.",
"0.0.0.0.0.0.0.0.0.0.0.0.0. .| [ ' ) / ~ W R U P J G D A V N m v x k h 0.0.0.0.0.0.0.0.0.0.0.0.0.",
"0.0.0.0.0.0.0.0.0.0.0.0.0.0. .} [ ` ) ^ ! W T U L J F S Z B M b v z 0.0.0.0.0.0.0.0.0.0.0.0.0.0.",
"0.0.0.0.0.0.0.0.0.0.0.0.0.0.0.0.} ] ` ) ^ ! E T I L H F S C V M 0.0.0.0.0.0.0.0.0.0.0.0.0.0.0.0.",
"0.0.0.0.0.0.0.0.0.0.0.0.0.0.0.0.0.0.] ` ( ^ Q E Y I K H F A 0.0.0.0.0.0.0.0.0.0.0.0.0.0.0.0.0.0.",
"0.0.0.0.0.0.0.0.0.0.0.0.0.0.0.0.0.0.0.0.0.( ~ Q R Y I 0.0.0.0.0.0.0.0.0.0.0.0.0.0.0.0.0.0.0.0.0.",
"0.0.0.0.0.0.0.0.0.0.0.0.0.0.0.0.0.0.0.0.0.0.0.0.0.0.0.0.0.0.0.0.0.0.0.0.0.0.0.0.0.0.0.0.0.0.0.0.",
"0.0.0.0.0.0.0.0.0.0.0.0.0.0.0.0.0.0.0.0.0.0.0.0.0.0.0.0.0.0.0.0.0.0.0.0.0.0.0.0.0.0.0.0.0.0.0.0.",
"0.0.0.0.0.0.0.0.0.0.0.0.0.0.0.0.0.0.0.0.0.0.0.0.0.0.0.0.0.0.0.0.0.0.0.0.0.0.0.0.0.0.0.0.0.0.0.0.",
"0.0.0.0.0.0.0.0.0.0.0.0.0.0.0.0.0.0.0.0.0.0.0.0.0.0.0.0.0.0.0.0.0.0.0.0.0.0.0.0.0.0.0.0.0.0.0.0.",
"0.0.0.0.0.0.0.0.0.0.0.0.0.= = = 0.0.0.= 0.0.0.0.= = = 0.0.0.= = 0.0.= = 0.0.0.0.0.0.0.0.0.0.0.0.",
"0.0.0.0.0.0.0.0.0.0.0.0.0.0.= 0.0.0.= = 0.0.0.= = 0.0.= = 0.= = 0.0.= 0.0.0.0.0.0.0.0.0.0.0.0.0.",
"0.0.0.0.0.0.0.0.0.0.0.0.0.0.= 0.0.0.= = = 0.0.= 0.0.0.0.0.0.= = 0.= 0.0.0.0.0.0.0.0.0.0.0.0.0.0.",
"0.0.0.0.0.0.0.0.0.0.0.0.0.0.= 0.0.0.0.= = 0.= = 0.0.0.0.0.0.= = = = 0.0.0.0.0.0.0.0.0.0.0.0.0.0.",
"0.0.0.0.0.0.0.0.0.0.0.0.0.0.= 0.0.= = = = 0.0.= 0.0.0.0.0.0.= = 0.= = 0.0.0.0.0.0.0.0.0.0.0.0.0.",
"0.0.0.0.0.0.0.0.0.0.0.0.0.0.= 0.0.= 0.0.= = 0.= = 0.0.= = 0.= = 0.0.= = 0.0.0.0.0.0.0.0.0.0.0.0.",
"0.0.0.0.0.0.0.0.0.0.0.0.0.0.= 0.= = 0.0.= = 0.0.= = = 0.0.0.= = 0.0.= = = 0.0.0.0.0.0.0.0.0.0.0.",
"0.0.0.0.0.0.0.0.0.0.0.= 0.0.= 0.0.0.0.0.0.0.0.0.0.0.0.0.0.0.0.0.0.0.0.0.0.0.0.0.0.0.0.0.0.0.0.0.",
"0.0.0.0.0.0.0.0.0.0.0.= = = = 0.0.0.0.0.0.0.0.0.0.0.0.0.0.0.0.0.0.0.0.0.0.0.0.0.0.0.0.0.0.0.0.0.",
"0.0.0.0.0.0.0.0.0.0.0.0.0.0.0.0.0.0.0.0.0.0.0.0.0.0.0.0.0.0.0.0.0.0.0.0.0.0.0.0.0.0.0.0.0.0.0.0.",
"0.0.0.0.0.0.0.0.0.0.0.0.0.0.0.0.0.0.0.0.0.0.0.0.0.0.0.0.0.0.0.0.0.0.0.0.0.0.0.0.0.0.0.0.0.0.0.0."
};
