/* XPM */
static char *jack32[] = {
/* columns rows colors chars-per-pixel */
"32 32 112 2 ",
"   c #0B0B0B",
".  c #0C0C0C",
"X  c gray5",
"o  c #0E0E0E",
"O  c gray6",
"+  c #101010",
"@  c #111111",
"#  c gray7",
"$  c #131313",
"%  c gray8",
"&  c #151515",
"*  c #161616",
"=  c gray9",
"-  c #181818",
";  c #191919",
":  c gray10",
">  c #1B1B1B",
",  c gray11",
"<  c #1D1D1D",
"1  c #1E1E1E",
"2  c gray12",
"3  c #202020",
"4  c gray13",
"5  c #222222",
"6  c #232323",
"7  c gray14",
"8  c #252525",
"9  c gray15",
"0  c #272727",
"q  c #282828",
"w  c gray16",
"e  c #2A2A2A",
"r  c gray17",
"t  c #2C2C2C",
"y  c #2D2D2D",
"u  c gray18",
"i  c #2F2F2F",
"p  c gray19",
"a  c #313131",
"s  c #323232",
"d  c gray20",
"f  c #343434",
"g  c #353535",
"h  c gray21",
"j  c #373737",
"k  c gray22",
"l  c #393939",
"z  c #3A3A3A",
"x  c gray23",
"c  c #3C3C3C",
"v  c gray24",
"b  c #3E3E3E",
"n  c #3F3F3F",
"m  c gray25",
"M  c #414141",
"N  c gray26",
"B  c #434343",
"V  c #444444",
"C  c gray27",
"Z  c #464646",
"A  c gray28",
"S  c #484848",
"D  c #494949",
"F  c gray29",
"G  c #4B4B4B",
"H  c #4C4C4C",
"J  c gray30",
"K  c #4E4E4E",
"L  c gray31",
"P  c #505050",
"I  c #515151",
"U  c gray32",
"Y  c #535353",
"T  c gray33",
"R  c #555555",
"E  c #565656",
"W  c gray34",
"Q  c #585858",
"!  c gray35",
"~  c #5A5A5A",
"^  c #5B5B5B",
"/  c gray36",
"(  c #5D5D5D",
")  c gray37",
"_  c #5F5F5F",
"`  c #606060",
"'  c gray38",
"]  c #626262",
"[  c gray39",
"{  c #646464",
"}  c #656565",
"|  c gray40",
" . c #797979",
".. c gray53",
"X. c gray57",
"o. c #9B9B9B",
"O. c gray62",
"+. c #9F9F9F",
"@. c #A0A0A0",
"#. c gray64",
"$. c gray65",
"%. c gray66",
"&. c #A9A9A9",
"*. c #AAAAAA",
"=. c #ACACAC",
"-. c gray70",
";. c #CBCBCB",
":. c #CDCDCD",
">. c #E7E7E7",
",. c #FDFDFD",
"<. c white",
"1. c None",
/* pixels */
"1.1.1.1.1.1.1.1.1.1.1.1.1.1.1.1.1.1.1.1.1.1.1.1.1.1.1.1.1.1.1.1.",
"1.1.1.1.1.1.1.1.1.1.1.1.1.1.1.1.1.1.1.1.1.1.1.1.1.1.1.1.1.1.1.1.",
"1.1.1.1.1.1.1.1.1.1.1.1.1.8 4 < : * $ 1.1.1.1.1.1.1.1.1.1.1.1.1.",
"1.1.1.1.1.1.1.1.1.1.1.u r 0 7 3 < ; & # o 1.1.1.1.1.1.1.1.1.1.1.",
"1.1.1.1.1.1.1.1.1.l g a u e 0 6 2 , - % @ X   1.1.1.1.1.1.1.1.1.",
"1.1.1.1.1.1.1.1.n c k f a y 0 1 > = - - % + .   1.1.1.1.1.1.1.1.",
"1.1.1.1.1.1.1.Z N n x j f u b P D G h ; = $ O .   1.1.1.1.1.1.1.",
"1.1.1.1.1.1.1.D C N b z h a l :.,.;.e > : * # O . 1.1.1.1.1.1.1.",
"1.1.1.1.1.1.L H S C M v z h 6 #.<.o.X 5 < ; & # o   1.1.1.1.1.1.",
"1.1.1.1.1.1.U K G S V m c l w $.<.O.& 7 3 , - & # o 1.1.1.1.1.1.",
"1.1.1.1.1.1.R I K F A B n c t %.<.O.= 0 6 2 > - % @ 1.1.1.1.1.1.",
"1.1.1.1.1.1.Q T I J D Z N n i &.<.+.: e 9 5 1 > = % 1.1.1.1.1.1.",
"1.1.1.1.1.1.^ W Y P J D C N s *.<.@.< y q 8 4 1 : * 1.1.1.1.1.1.",
"1.1.1.1.1.1.) ~ E Y L H S C g =.<.@.2 p r q 7 4 < ; 1.1.1.1.1.1.",
"1.1.1.1.1.1.' ( ! E Y L G S k =.<.X.6 d u r 0 7 3 , 1.1.1.1.1.1.",
"1.1.1.1.1.1.{ ` / ! E U K G z -.<.Q i g a u e 0 6 2 1.1.1.1.1.1.",
"1.1.1.1.1.1.1.[ _ / ! R I F R >.+.a c k f a y e 9 1.1.1.1.1.1.1.",
"1.1.1.1.1.1.1.| [ _ ^ Q Y E .. .x N b x j f p t w 1.1.1.1.1.1.1.",
"1.1.1.1.1.1.1.1.} ] ) ~ W E J V D C M b z h d p 1.1.1.1.1.1.1.1.",
"1.1.1.1.1.1.1.1.1.} ' ( ~ E U L H S V M v l h 1.1.1.1.1.1.1.1.1.",
"1.1.1.1.1.1.1.1.1.1.{ ' ( ! R U L G A V m c 1.1.1.1.1.1.1.1.1.1.",
"1.1.1.1.1.1.1.1.1.1.1.[ ` / ! R U K F A B 1.1.1.1.1.1.1.1.1.1.1.",
"1.1.1.1.1.1.1.1.1.1.1.1.1.1.1.Q R 1.1.1.1.1.1.1.1.1.1.1.1.1.1.1.",
"1.1.1.1.1.1.1.1.1.1.1.1.1.1.1.1.1.1.1.1.1.1.1.1.1.1.1.1.1.1.1.1.",
"1.1.1.1.1.1.1.1.1.1.1.1.1.1.1.1.1.1.1.1.1.1.1.1.1.1.1.1.1.1.1.1.",
"1.1.1.1.1.1.1.1.1.* 1.1.1.1.1.1.1.1.1.1.* 1.1.1.1.1.1.1.1.1.1.1.",
"1.1.1.1.1.1.1.1.1.* 1.1.* * 1.* * 1.* 1.* 1.1.1.1.1.1.1.1.1.1.1.",
"1.1.1.1.1.1.1.1.1.* 1.1.* * 1.* 1.1.1.1.* * * 1.1.1.1.1.1.1.1.1.",
"1.1.1.1.1.1.1.1.1.* 1.1.1.* 1.* 1.1.1.1.* 1.* * 1.1.1.1.1.1.1.1.",
"1.1.1.1.1.1.1.1.1.* 1.* 1.* * 1.* 1.* 1.* 1.1.* 1.1.1.1.1.1.1.1.",
"1.1.1.1.1.1.1.1.* * 1.1.1.1.1.1.1.1.1.1.1.1.1.1.1.1.1.1.1.1.1.1.",
"1.1.1.1.1.1.1.1.1.1.1.1.1.1.1.1.1.1.1.1.1.1.1.1.1.1.1.1.1.1.1.1."
};
