/* XPM */
static char *jack16[] = {
/* columns rows colors chars-per-pixel */
"16 16 62 1 ",
"  c #0E0E0E",
". c gray6",
"X c #101010",
"o c gray7",
"O c gray8",
"+ c #151515",
"@ c #161616",
"# c #181818",
"$ c #191919",
"% c gray10",
"& c #1B1B1B",
"* c #1D1D1D",
"= c #202020",
"- c #222222",
"; c #232323",
": c gray14",
"> c #252525",
", c #282828",
"< c gray16",
"1 c #2C2C2C",
"2 c gray18",
"3 c gray19",
"4 c gray20",
"5 c gray21",
"6 c #3A3A3A",
"7 c #3C3C3C",
"8 c gray24",
"9 c gray25",
"0 c #434343",
"q c #444444",
"w c #464646",
"e c gray28",
"r c #494949",
"t c #4B4B4B",
"y c #4C4C4C",
"u c gray31",
"i c #505050",
"p c #515151",
"a c gray32",
"s c gray33",
"d c #565656",
"f c gray34",
"g c #585858",
"h c #5B5B5B",
"j c gray36",
"k c #5D5D5D",
"l c #5F5F5F",
"z c #626262",
"x c gray39",
"c c #646464",
"v c #656565",
"b c #6C6C6C",
"n c #6D6D6D",
"m c #717171",
"M c #727272",
"N c #7E7E7E",
"B c #8B8B8B",
"V c #AAAAAA",
"C c #C8C8C8",
"Z c #CBCBCB",
"A c LightGray",
"S c None",
/* pixels */
"SSSSSSSSSSSSSSSS",
"SSSSSS<-$oSSSSSS",
"SSSSS53:+#XSSSSS",
"SSSSq83fB>O.SSSS",
"SSSat04bA**+ SSS",
"SSSgpr6nC;;&OSSS",
"SSSlfu9mZ,<-%SSS",
"SSSckdwNV13,=SSS",
"SSSSxhaMi652SSSS",
"SSSSSzhie074SSSS",
"SSSSSSvjsySSSSSS",
"SSSSSSSSSSSSSSSS",
"SSSSSSSSSSSSSSSS",
"SSSSSS@+SS@SSSSS",
"SSSSSSSSSSSSSSSS",
"SSSSSSSSSSSSSSSS"
};
